<svg xmlns="http://www.w3.org/2000/svg" fill="none" viewBox="0 0 100 100"><mask id="a" width="100" height="81" x="0" y="10" maskUnits="userSpaceOnUse" style="mask-type:luminance"><path fill="#fff" d="M100 10H0v80.5h100z"/></mask><g mask="url(#a)"><path fill="#747474" d="M63.5 32.2h3.1l8.7-8.7.4-3.7C59.5 5.5 34.8 7 20.5 23.2c-4 4.5-6.8 9.8-8.4 15.6 1-.4 2-.5 3.1-.2l17.4-2.9s.9-1.5 1.3-1.4c7.7-8.4 20.7-9.4 29.6-2.1"/><path fill="#7D7D7D" d="M87.6 38.8c-2-7.4-6.1-14-11.8-19L63.6 32c5.2 4.2 8.1 10.6 8 17.2v2.2c6 0 10.9 4.9 10.9 10.9s-4.9 10.9-10.9 10.9H49.8l-2.2 2.2v13l2.2 2.2h21.7c12.4.1 23.5-8 27.2-19.9 3.7-12-.8-24.9-11.1-31.9"/><path fill="#7C7C7C" d="M28.1 90.4h21.7V73H28.1c-1.5 0-3.1-.3-4.5-1l-3.1.9-8.8 8.7-.7 3.1c4.9 3.7 10.9 5.7 17.1 5.7"/><path fill="#BBB" d="M28.1 34C16 34 5.3 41.8 1.5 53.2s0 24 9.5 31.4L23.6 72c-5.5-2.5-7.9-8.9-5.4-14.4s8.9-7.9 14.4-5.4c2.4 1.1 4.3 3 5.4 5.4L50.6 45c-5.4-7-13.7-11.1-22.5-11"/></g></svg>