<svg xmlns="http://www.w3.org/2000/svg" fill="none" viewBox="0 0 100 100"><g clip-path="url(#a)"><path fill="#757575" d="M95.8 0H47.7c0 5.8 2.3 11.3 6.4 15.4s9.6 6.4 15.4 6.4h8.9v8.6C78.3 42.3 88 52 100 52V4.2c0-2.3-1.9-4.2-4.2-4.2"/><path fill="url(#b)" d="M72 24H23.8c0 12 9.7 21.7 21.7 21.7h8.9v8.6c0 12 9.7 21.7 21.7 21.7V28.2c.1-2.3-1.8-4.2-4.1-4.2"/><path fill="url(#c)" d="M48.2 48H0c0 12 9.7 21.7 21.7 21.7h8.9v8.6c0 12 9.7 21.7 21.7 21.7V52.2c0-2.4-1.8-4.2-4.1-4.2"/></g><defs><linearGradient id="b" x1="74.994" x2="54.634" y1="23.935" y2="45.18" gradientUnits="userSpaceOnUse"><stop offset=".18" stop-color="#474747"/><stop offset="1" stop-color="#757575"/></linearGradient><linearGradient id="c" x1="52.526" x2="28.974" y1="48.053" y2="71.225" gradientUnits="userSpaceOnUse"><stop offset=".18" stop-color="#474747"/><stop offset="1" stop-color="#757575"/></linearGradient><clipPath id="a"><path fill="#fff" d="M0 0h100v100H0z"/></clipPath></defs></svg>