<svg width="143" height="24" viewBox="0 0 143 24" fill="none" xmlns="http://www.w3.org/2000/svg">
<g clip-path="url(#clip0_701_55924)">
<path d="M64.9007 6.77588C59.765 6.77588 56.0371 10.4101 56.0371 15.4163C56.0371 20.4225 59.765 24.0567 64.9007 24.0567C70.0364 24.0567 73.7643 20.4225 73.7643 15.4163C73.7643 10.4101 70.0364 6.77588 64.9007 6.77588ZM64.9007 20.1896C62.3028 20.1896 60.5546 18.2721 60.5546 15.4163C60.5546 12.5605 62.3004 10.6429 64.9007 10.6429C67.4987 10.6429 69.2469 12.5605 69.2469 15.4163C69.2469 18.2721 67.4987 20.1896 64.9007 20.1896Z" fill="#FF0025"/>
<path d="M48.803 15.5095C48.6826 15.4844 48.6733 15.3178 48.7914 15.2858C49.6944 15.0461 50.4724 14.4846 51.0768 13.7518L56.6408 7.0335H51.4982L45.2812 14.5576V0.0275879H40.7637V23.7938H45.2812V16.1076L50.6368 22.278C51.5537 23.3258 52.5425 23.7938 53.9919 23.7938H57.2683L51.1694 16.8472C50.5465 16.1373 49.7153 15.6922 48.803 15.5095Z" fill="#FF0025"/>
<path d="M95.836 6.77588C93.0945 6.77588 91.2977 8.22774 90.397 9.6796C89.538 7.77803 87.806 6.77588 85.2428 6.77588C83.1056 6.77588 81.5403 7.70498 80.9291 9.02215C80.8411 9.21163 80.6859 9.25728 80.6211 8.98106C80.3479 7.8214 79.2735 7.03612 78.081 7.03612H76.1777V23.7941H80.6929V15.2862C80.6929 12.3824 81.9062 10.579 84.0156 10.579C85.8101 10.579 86.7733 11.6885 86.7733 13.622V23.7964H91.2885V15.2519C91.2885 12.3687 92.4902 10.5767 94.5787 10.5767C96.3871 10.5767 97.4013 11.7136 97.4013 13.6197V23.7941H101.916V12.4783C101.916 9.12031 99.4366 6.77588 95.836 6.77588Z" fill="#FF0025"/>
<path d="M37.5327 2.60259C37.5327 1.1804 36.3634 0.0275879 34.9209 0.0275879H33.0176V20.7234C33.0176 23.093 34.5412 24.054 36.2453 24.054C36.9678 24.054 37.7087 23.8897 38.357 23.5952C37.6763 22.5999 37.5327 21.1891 37.5327 19.9245V2.60259Z" fill="#FF0025"/>
<path d="M11.3967 5.23699C11.3967 2.74418 9.28965 0.801514 6.88157 0.801514H2.61185C1.16931 0.801514 0 1.95433 0 3.37651V5.41277H6.782V20.7212C6.782 23.0908 8.3542 24.0518 10.0584 24.0518C10.7808 24.0518 11.5727 23.8875 12.221 23.593C11.5403 22.5977 11.3967 21.1869 11.3967 19.9222V5.23699Z" fill="#FF0025"/>
<path d="M18.1783 4.41518V0.801514H9.97227C9.85186 0.801514 9.80787 0.959027 9.91207 1.0161C11.1694 1.7055 11.9636 2.97017 12.2113 4.4266C12.3155 5.04067 12.7555 5.41962 13.3945 5.41962H17.1572C17.7198 5.41962 18.1783 4.96991 18.1783 4.41518Z" fill="#FF0025"/>
<path d="M111.866 13.5581C109.622 12.9737 108.817 12.4943 108.817 11.7432C108.817 10.7548 109.643 10.1909 111.373 10.1909C113.318 10.1909 115.293 10.8507 116.497 11.7181V8.09305C115.23 7.28494 113.193 6.77588 111.218 6.77588C107.05 6.77588 104.484 8.93312 104.484 11.8985C104.484 14.8638 107.05 16.1376 109.798 16.8864C112.084 17.5461 113.214 17.9137 113.214 18.909C113.214 19.9864 112.329 20.6119 110.414 20.6119C107.944 20.6119 105.999 19.6531 104.609 18.4547V22.3788C106.121 23.4266 108.222 24.0567 110.6 24.0567C114.983 24.0567 117.546 21.9907 117.546 18.8154C117.546 15.4003 114.582 14.2452 111.866 13.5581Z" fill="#FF0025"/>
<path d="M22.731 6.77588C18.1001 6.77588 14.3027 10.2001 14.3027 15.4848C14.3027 20.5297 17.7296 24.0567 23.472 24.0567C25.6323 24.0567 27.6398 23.486 29.3695 22.4359V18.6327C27.7023 19.7741 25.85 20.4339 23.9675 20.4339C21.1588 20.4339 19.2277 19.2674 18.6396 16.6901H30.4276C30.4902 16.1742 30.5504 15.6217 30.5504 15.1241C30.548 9.65905 26.9591 6.77588 22.731 6.77588ZM18.7901 13.6266C19.1397 11.5675 20.7212 10.1088 22.7009 10.1088C24.5741 10.1088 25.9958 11.3255 26.1903 13.6266H18.7901Z" fill="#FF0025"/>
<path d="M127.376 6.77588C122.745 6.77588 118.947 10.2001 118.947 15.4848C118.947 20.5297 122.374 24.0567 128.117 24.0567C130.277 24.0567 132.284 23.486 134.014 22.4359V18.6327C132.347 19.7741 130.494 20.4339 128.612 20.4339C125.803 20.4339 123.872 19.2674 123.284 16.6901H135.072C135.135 16.1742 135.195 15.6217 135.195 15.1241C135.193 9.65905 131.606 6.77588 127.376 6.77588ZM123.435 13.6266C123.784 11.5675 125.366 10.1088 127.345 10.1088C129.219 10.1088 130.64 11.3255 130.835 13.6266H123.435Z" fill="#FF0025"/>
<path d="M142.175 19.9245V2.60259C142.175 1.1804 141.006 0.0275879 139.563 0.0275879H137.66V20.7234C137.66 23.093 139.184 24.054 140.888 24.054C141.61 24.054 142.351 23.8897 143 23.5952C142.319 22.5999 142.175 21.1891 142.175 19.9245Z" fill="#FF0025"/>
</g>
<defs>
<clipPath id="clip0_701_55924">
<rect width="143" height="24" fill="white"/>
</clipPath>
</defs>
</svg>
